PathFileType	4	(X/Y/Z)	c:/Users/goper/Files/vsCode/490R/osim_files/A02/A02_Fast_06.trc
DataRate	CameraRate	NumFrames	NumMarkers	Units                	OrigDataRate	OrigDataStartFrame	OrigNumFrames
250.00	250.00	9	36	mm	250.0	1307	2612
                Frame#	Time	Mobility_markerset:LPSIS			Mobility_markerset:LASIS			Mobility_markerset:LTH1			Mobility_markerset:LTH2			Mobility_markerset:LTH3			Mobility_markerset:LTH4			Mobility_markerset:LLFE			Mobility_markerset:LMFE			Mobility_markerset:LSH1			Mobility_markerset:LSH2			Mobility_markerset:LSH3			Mobility_markerset:LSH4			Mobility_markerset:LLMAL			Mobility_markerset:LMMAL			Mobility_markerset:LCAL			Mobility_markerset:LMTP5			Mobility_markerset:LTOE			Mobility_markerset:LMTP1			Mobility_markerset:RPSIS			Mobility_markerset:RASIS			Mobility_markerset:RTH1			Mobility_markerset:RTH2			Mobility_markerset:RTH3			Mobility_markerset:RTH4			Mobility_markerset:RLFE			Mobility_markerset:RMFE			Mobility_markerset:RSH1			Mobility_markerset:RSH2			Mobility_markerset:RSH3			Mobility_markerset:RSH4			Mobility_markerset:RLMAL			Mobility_markerset:RMMAL			Mobility_markerset:RCAL			Mobility_markerset:RMTP1			Mobility_markerset:RTOE			Mobility_markerset:RMTP5		
		X1	Y1	Z1	X2	Y2	Z2	X3	Y3	Z3	X4	Y4	Z4	X5	Y5	Z5	X6	Y6	Z6	X7	Y7	Z7	X8	Y8	Z8	X9	Y9	Z9	X10	Y10	Z10	X11	Y11	Z11	X12	Y12	Z12	X13	Y13	Z13	X14	Y14	Z14	X15	Y15	Z15	X16	Y16	Z16	X17	Y17	Z17	X18	Y18	Z18	X19	Y19	Z19	X20	Y20	Z20	X21	Y21	Z21	X22	Y22	Z22	X23	Y23	Z23	X24	Y24	Z24	X25	Y25	Z25	X26	Y26	Z26	X27	Y27	Z27	X28	Y28	Z28	X29	Y29	Z29	X30	Y30	Z30	X31	Y31	Z31	X32	Y32	Z32	X33	Y33	Z33	X34	Y34	Z34	X35	Y35	Z35	X36	Y36	Z36

1307	5.22400	-532.75879	919.32916	274.32782	-676.65845	878.54114	370.42252	-523.45038	659.88080	383.77377	-518.82800	612.60956	377.23700	-580.90485	646.56653	402.04294	-568.43420	603.73682	391.47287	0.00000	0.00000	0.00000	-541.23621	391.33411	261.62445	-401.98746	404.01654	327.39679	-382.29138	364.30469	332.81583	-455.18045	370.08810	337.05566	-427.28476	335.46545	340.19757	-294.86880	127.79560	291.21600	-311.08347	129.07335	208.63521	-222.53043	124.80059	245.31125	-361.41528	43.16435	314.46600	-417.07709	49.47607	249.98308	-375.48898	33.31792	202.20360	-544.94989	928.53796	173.38188	-703.98090	902.01599	120.63572	-759.57208	569.18250	99.10504	-785.27875	533.38647	99.61121	-813.37708	599.20465	101.93344	-830.54108	559.63684	100.14825	-853.03766	442.01672	90.00345	-868.07263	451.03821	223.83301	-924.83972	270.31097	109.75675	-949.28687	231.76990	119.81656	-978.00824	297.94659	107.99586	-996.33960	254.48079	114.94523	-1022.06329	90.26196	117.84680	-1029.54541	98.61735	205.12656	-981.95886	53.47458	162.91365	-1157.45374	118.63810	198.63225	-1171.98474	138.37483	163.51237	-1151.60815	112.84143	106.53543
1308	5.22800	-539.64752	919.10284	274.20853	-683.55872	878.09912	370.35312	-529.34570	659.98242	383.58569	-524.97485	612.87134	377.21555	-586.77167	646.46368	402.17984	-574.18408	603.55499	391.66800	0.00000	0.00000	0.00000	-546.64484	391.23145	261.46783	-408.02515	404.39536	328.13138	-386.86148	365.56055	333.10010	-459.52979	370.70636	337.67838	-431.57840	336.20087	340.64908	-297.04260	129.80215	291.80188	-313.43021	130.91643	209.19623	-224.93204	128.08963	245.77789	-361.96744	43.27081	314.63440	-417.72546	48.93270	250.11845	-375.80893	33.61195	202.34322	-551.81818	928.27661	173.27765	-710.99426	901.58466	120.47282	-764.72839	569.47327	98.87599	-790.03357	533.46851	99.31428	-819.17987	598.99146	101.40979	-835.54340	559.28625	99.71536	-857.06628	441.52554	89.81207	-872.50586	450.69974	223.56717	-927.76184	269.35742	109.65057	-951.91040	230.71242	119.76818	-981.08557	296.56412	107.78087	-999.18256	253.08755	114.83573	-1023.65350	89.19117	117.65746	-1031.64294	97.42442	205.38449	-983.72668	53.42082	162.71431	-1159.26306	115.86241	198.18559	-1174.37366	135.43340	163.32928	-1153.56287	109.97392	106.40544
1309	5.23200	-546.45831	919.01459	274.20517	-690.48602	877.81696	370.24271	-535.40741	660.08466	383.43088	-530.87195	613.00604	377.09644	-592.65356	646.41522	402.29947	-580.05725	603.56409	391.83865	0.00000	0.00000	0.00000	-552.26416	391.06012	261.75446	-412.99371	405.54300	328.35599	-391.49460	366.89914	333.37119	-464.47284	371.14465	338.07556	-435.80240	337.04749	341.20651	-299.44144	131.87411	292.32327	-316.07236	132.73259	209.81992	-227.52568	131.58910	246.23866	-362.77936	43.30000	314.76373	-418.33896	48.44681	250.14700	-376.01035	34.17318	202.42096	-558.84491	928.00476	173.17232	-718.01251	901.25732	120.21175	-769.80121	570.11383	98.65462	-794.65460	533.92310	98.99680	-823.87390	599.36285	101.02554	-840.44757	559.39038	99.33276	-861.08917	441.43851	89.59803	-876.91180	451.03271	223.66537	-930.58228	268.84741	109.54085	-954.41553	229.92010	119.50699	-984.00201	295.70987	107.57820	-1001.43762	252.12288	114.58826	-1025.35413	88.44608	117.46874	-1033.58789	96.62024	205.34955	-984.25293	53.79553	162.92735	-1161.42029	113.23405	198.34102	-1176.49915	132.52087	163.16417	-1155.32263	107.29135	106.23463
1310	5.23600	-553.45032	919.01074	274.16470	-697.47607	877.55487	370.08401	-541.70044	660.18958	383.20981	-537.01923	613.16779	377.05576	-598.76306	646.39563	402.43491	-586.03778	603.59918	391.94742	0.00000	0.00000	0.00000	-558.11707	391.12350	261.87897	-418.44952	406.62744	328.67960	-396.42520	368.28400	333.70123	-469.29968	371.75037	338.66788	-440.35083	338.00067	341.68228	-302.02036	134.04253	292.87997	-318.90695	134.64987	210.42661	-230.33371	135.24330	246.69740	-363.45709	43.44408	314.91168	-419.01672	47.92349	250.12762	-376.32025	34.65062	202.54243	-565.82251	927.83759	173.05898	-725.09119	900.98431	120.05939	-774.86603	571.11737	98.40222	-799.36530	534.75714	98.73230	-829.57501	599.76300	100.84527	-845.64618	559.50159	99.28195	-865.09747	441.78131	89.38780	-880.99719	451.29642	223.28645	-933.40393	268.68213	109.35328	-956.88348	229.67622	119.47775	-987.00415	295.15915	107.39108	-1004.10492	251.43015	114.43108	-1026.64709	87.88345	117.18366	-1034.80420	96.37739	205.48201	-985.13495	54.09053	162.82533	-1162.88672	110.93147	197.88281	-1178.42102	130.00269	162.96628	-1156.72607	105.13271	106.00337
1311	5.24000	-560.79437	918.86957	273.86942	-704.55505	877.42560	369.93616	-547.85150	660.39832	383.02649	-543.15430	613.33972	377.00861	-604.97736	646.47632	402.53476	-592.15448	603.65662	392.11703	0.00000	0.00000	0.00000	-564.10535	391.24493	262.12650	-423.07825	408.33908	328.61887	-401.44769	369.78976	334.01401	-474.63324	372.17828	339.07401	-444.97333	338.98267	342.27505	-304.80276	136.19153	293.49841	-322.00070	136.62886	211.11279	-233.42906	139.10078	247.08231	-364.22461	43.57835	315.03290	-419.00531	47.06236	250.81418	-376.50735	35.07150	202.39113	-572.86127	927.74030	172.87805	-732.16418	900.91028	120.10670	-779.87939	572.32812	98.15712	-804.07062	535.80762	98.49184	-834.83270	600.66260	100.57844	-850.56567	560.26880	99.14526	-869.20752	442.33203	89.18984	-885.17706	451.77985	223.08356	-936.03241	268.72632	109.17960	-959.22003	229.51491	119.33520	-989.89905	294.77631	107.21542	-1006.63934	250.87294	114.28364	-1027.93726	87.34280	116.99756	-1036.25085	95.87152	205.32123	-986.02374	54.30286	162.63448	-1164.43250	109.04855	197.75662	-1180.03625	127.98376	162.76593	-1158.18201	103.15987	105.87295
1312	5.24400	-567.76935	919.01965	273.78687	-711.64081	877.45508	369.81342	-554.18866	660.65820	382.82898	-549.43756	613.63489	376.89957	-611.08990	646.65619	402.72354	-598.35925	603.82153	392.29651	0.00000	0.00000	0.00000	-570.28265	391.40350	262.38531	-429.74246	408.93692	329.35699	-406.71259	371.25732	334.32651	-479.64758	373.02603	339.92737	-449.84680	339.95041	342.88229	-307.77676	138.45799	294.12271	-325.25220	138.62044	211.78906	-236.94337	143.00290	247.50496	-365.05228	43.79503	315.09436	-419.64603	46.52223	250.93044	-377.04382	35.34936	202.56778	-579.82977	927.82172	172.74403	-739.26447	901.00531	119.96396	-784.91205	573.73169	97.93973	-808.89380	537.05951	98.29983	-839.14435	601.83917	100.47460	-855.50244	561.17615	98.99229	-873.21545	442.99118	89.01225	-889.25305	452.41296	222.93948	-938.58337	268.86139	109.06590	-961.43890	229.50041	119.24133	-992.68054	294.49796	107.12197	-1009.01862	250.49828	114.15240	-1028.96399	86.93836	116.81223	-1037.20178	95.54824	205.29247	-986.72217	54.52054	162.53764	-1165.69995	107.58209	198.01042	-1181.43469	126.18201	162.66641	-1159.34021	101.40037	105.81512
1313	5.24800	-574.71924	919.21808	273.71298	-718.75317	877.52087	369.66254	-560.73846	660.92596	382.66504	-555.41449	613.67889	376.64703	-617.47430	646.89984	402.84760	-604.57550	604.10132	392.50839	0.00000	0.00000	0.00000	-576.74915	391.59570	262.67108	-436.46695	409.90607	330.71860	-412.13184	372.87466	334.61664	-485.11435	373.73926	340.64355	-454.81564	341.02396	343.57117	-310.96994	140.80887	294.75546	-328.73181	140.64183	212.49234	-240.63734	147.11615	247.90565	-365.85489	44.07673	315.20959	-420.44168	45.99525	250.97646	-377.49353	35.76213	202.87949	-586.94366	927.90405	172.60030	-746.46161	901.24225	119.98676	-789.97754	575.20599	97.75934	-813.69763	538.32306	98.16765	-845.30707	602.65417	100.54241	-860.50964	562.11237	98.87437	-877.12646	443.73776	88.89398	-892.97131	453.11414	222.60312	-941.06976	269.10959	109.03805	-963.59601	229.56985	119.25336	-995.39008	294.24246	107.07639	-1011.39337	250.10175	114.14570	-1029.86475	86.56711	116.80279	-1038.28369	95.08610	205.14648	-987.33539	54.73263	162.55191	-1166.65051	105.87017	197.74966	-1182.71460	124.21184	162.70262	-1160.50439	99.67717	105.87590
1314	5.25200	-581.72064	919.44037	273.65472	-725.27399	877.67664	369.68954	-566.80011	661.37378	382.61005	-562.44861	614.23419	376.78201	-624.01123	647.16699	402.98239	-611.05743	604.38843	392.72583	0.00000	0.00000	0.00000	-583.31757	391.72211	263.12433	-442.32480	411.31207	330.88049	-417.72266	374.45511	334.99988	-490.39505	374.63858	341.81531	-460.03000	342.11206	344.24731	-314.47290	143.17659	295.41824	-332.55914	142.67400	213.26843	-244.74829	151.29626	248.32915	-366.65274	44.40192	315.37585	-421.15952	45.45457	251.02837	-377.93781	36.23850	203.12032	-593.99005	928.09576	172.49283	-753.50024	901.69354	119.93172	-795.13373	576.61450	97.63555	-818.48370	539.71228	97.92980	-850.45673	603.84290	100.12216	-865.46960	562.95801	98.69182	-881.10480	444.41370	88.86755	-897.16132	453.61700	222.49701	-943.57892	269.26907	109.05555	-965.76263	229.50568	119.34541	-998.11176	293.92844	107.06023	-1013.79492	249.67027	114.17916	-1030.87170	86.22460	116.83805	-1039.11694	94.82386	205.43347	-988.06836	54.87260	162.57600	-1167.77307	104.05866	197.85287	-1184.06409	122.26348	162.79256	-1161.71228	97.86709	105.98799
1315	5.25600	-588.74445	919.67059	273.65137	-732.67059	878.00830	369.46686	-573.57117	661.71198	382.51843	-569.22211	614.43115	376.83240	-630.63440	647.53979	403.16241	-617.68793	604.70703	393.04535	0.00000	0.00000	0.00000	-590.23376	391.77463	263.76913	-448.93674	412.52261	331.48236	-423.56076	375.95529	335.17096	-496.20325	375.33090	342.62518	-465.38235	343.07364	344.96768	-318.13107	145.58644	296.15472	-336.59790	144.72537	213.97806	-249.18933	155.66130	248.77673	-367.63339	44.73908	315.45895	-421.83151	45.06821	251.05629	-378.22632	36.93829	203.24504	-600.98145	928.42627	172.31682	-760.41156	902.24091	120.04121	-800.34021	577.94855	97.49097	-823.55804	540.65546	98.00018	-856.17529	604.48773	100.24811	-870.54016	563.75183	98.56664	-885.22797	445.01508	88.77828	-901.22266	454.06812	222.37897	-946.16315	269.40524	109.05361	-968.11621	229.44563	119.36259	-1000.95129	293.58008	107.09083	-1016.22632	249.15749	114.23396	-1031.89307	85.92467	116.82976	-1040.45166	94.19214	205.48096	-989.26013	55.01208	162.47285	-1169.06079	102.15139	197.99399	-1185.57983	120.13681	162.90298	-1162.90063	96.03301	106.15916
